REM DIRINDEX 1\2\5,1\2\6,1\2\7,1\2\8,1\3\9,1\3\10,1\3\11,1\4\12,1\4\13,1\4\14,1\4\15,1\4\16
REM DIRNAME cjc034,folder01,folder02,folder03,folder04,folder05,folder06,folder07,folder08,folder09,folder10,folder11,folder12,folder13,folder14,folder15
TITLE ""
FILE "1200_sec04_1266_1272.mp3" MP3
  TRACK 01 AUDIO
    TITLE "0:"
    INDEX 01 00:00:00
  TRACK 02 AUDIO
    TITLE "12:cjc034_08777"
    INDEX 01 00:00:19
  TRACK 03 AUDIO
    TITLE "0:"
    INDEX 01 00:01:30
  TRACK 04 AUDIO
    TITLE "13:cjc034_08778"
    INDEX 01 00:01:64
  TRACK 05 AUDIO
    TITLE "0:"
    INDEX 01 00:02:69
  TRACK 06 AUDIO
    TITLE "14:cjc034_08779"
    INDEX 01 00:03:23
  TRACK 07 AUDIO
    TITLE "0:"
    INDEX 01 00:04:33
  TRACK 08 AUDIO
    TITLE "15:cjc034_08780"
    INDEX 01 00:04:70
  TRACK 09 AUDIO
    TITLE "0:"
    INDEX 01 00:10:02
  TRACK 10 AUDIO
    TITLE "12:cjc034_08781"
    INDEX 01 00:11:33
  TRACK 11 AUDIO
    TITLE "0:"
    INDEX 01 00:12:56
  TRACK 12 AUDIO
    TITLE "13:cjc034_08782"
    INDEX 01 00:13:14
  TRACK 13 AUDIO
    TITLE "0:"
    INDEX 01 00:15:30
  TRACK 14 AUDIO
    TITLE "14:cjc034_08783"
    INDEX 01 00:15:64
  TRACK 15 AUDIO
    TITLE "0:"
    INDEX 01 00:17:12
  TRACK 16 AUDIO
    TITLE "15:cjc034_08784"
    INDEX 01 00:17:45
  TRACK 17 AUDIO
    TITLE "0:"
    INDEX 01 00:22:01
  TRACK 18 AUDIO
    TITLE "12:cjc034_08785"
    INDEX 01 00:23:30
  TRACK 19 AUDIO
    TITLE "0:"
    INDEX 01 00:24:35
  TRACK 20 AUDIO
    TITLE "13:cjc034_08786"
    INDEX 01 00:24:71
  TRACK 21 AUDIO
    TITLE "0:"
    INDEX 01 00:27:04
  TRACK 22 AUDIO
    TITLE "14:cjc034_08787"
    INDEX 01 00:27:36
  TRACK 23 AUDIO
    TITLE "0:"
    INDEX 01 00:28:41
  TRACK 24 AUDIO
    TITLE "15:cjc034_08788"
    INDEX 01 00:29:01
  TRACK 25 AUDIO
    TITLE "0:"
    INDEX 01 00:33:13
  TRACK 26 AUDIO
    TITLE "12:cjc034_08789"
    INDEX 01 00:34:47
  TRACK 27 AUDIO
    TITLE "0:"
    INDEX 01 00:35:63
  TRACK 28 AUDIO
    TITLE "13:cjc034_08790"
    INDEX 01 00:36:23
  TRACK 29 AUDIO
    TITLE "0:"
    INDEX 01 00:38:24
  TRACK 30 AUDIO
    TITLE "14:cjc034_08791"
    INDEX 01 00:38:57
  TRACK 31 AUDIO
    TITLE "0:"
    INDEX 01 00:39:74
  TRACK 32 AUDIO
    TITLE "15:cjc034_08792"
    INDEX 01 00:40:32
  TRACK 33 AUDIO
    TITLE "0:"
    INDEX 01 00:44:24
  TRACK 34 AUDIO
    TITLE "16:cjc034_08793"
    INDEX 01 00:45:57
  TRACK 35 AUDIO
    TITLE "0:"
    INDEX 01 00:49:49
  TRACK 36 AUDIO
    TITLE "12:cjc034_08794"
    INDEX 01 00:50:54
  TRACK 37 AUDIO
    TITLE "0:"
    INDEX 01 00:51:54
  TRACK 38 AUDIO
    TITLE "13:cjc034_08795"
    INDEX 01 00:52:16
  TRACK 39 AUDIO
    TITLE "0:"
    INDEX 01 00:54:21
  TRACK 40 AUDIO
    TITLE "14:cjc034_08796"
    INDEX 01 00:54:56
  TRACK 41 AUDIO
    TITLE "0:"
    INDEX 01 00:55:57
  TRACK 42 AUDIO
    TITLE "15:cjc034_08797"
    INDEX 01 00:56:18
  TRACK 43 AUDIO
    TITLE "0:"
    INDEX 01 01:01:21
  TRACK 44 AUDIO
    TITLE "12:cjc034_08798"
    INDEX 01 01:02:55
  TRACK 45 AUDIO
    TITLE "0:"
    INDEX 01 01:03:65
  TRACK 46 AUDIO
    TITLE "13:cjc034_08799"
    INDEX 01 01:04:23
  TRACK 47 AUDIO
    TITLE "0:"
    INDEX 01 01:05:44
  TRACK 48 AUDIO
    TITLE "14:cjc034_08800"
    INDEX 01 01:06:02
  TRACK 49 AUDIO
    TITLE "0:"
    INDEX 01 01:07:10
  TRACK 50 AUDIO
    TITLE "15:cjc034_08801"
    INDEX 01 01:07:45
  TRACK 51 AUDIO
    TITLE "0:"
    INDEX 01 01:13:44
  TRACK 52 AUDIO
    TITLE "12:cjc034_08802"
    INDEX 01 01:15:03
  TRACK 53 AUDIO
    TITLE "0:"
    INDEX 01 01:16:11
  TRACK 54 AUDIO
    TITLE "13:cjc034_08803"
    INDEX 01 01:16:46
  TRACK 55 AUDIO
    TITLE "0:"
    INDEX 01 01:17:55
  TRACK 56 AUDIO
    TITLE "14:cjc034_08804"
    INDEX 01 01:18:11
  TRACK 57 AUDIO
    TITLE "0:"
    INDEX 01 01:19:17
  TRACK 58 AUDIO
    TITLE "15:cjc034_08805"
    INDEX 01 01:19:54
  TRACK 59 AUDIO
    TITLE "0:"
    INDEX 01 01:24:24
